<svg xmlns="http://www.w3.org/2000/svg" viewBox="0 0 180 180" role="img" aria-label="BOServices">
  <rect width="180" height="180" rx="40" fill="#0E0E0E"/>
  <g transform="translate(90 90)" fill="#FFFFFF">
    <path d="M 0 -57 C 24 -57 45 -42 48 -12 C 48 -12 39 -21 27 -27 C 9 -33 0 -42 0 -57 Z"/>
    <path d="M 0 -57 C 24 -57 45 -42 48 -12 C 48 -12 39 -21 27 -27 C 9 -33 0 -42 0 -57 Z" transform="rotate(90)"/>
    <path d="M 0 -57 C 24 -57 45 -42 48 -12 C 48 -12 39 -21 27 -27 C 9 -33 0 -42 0 -57 Z" transform="rotate(180)"/>
    <path d="M 0 -57 C 24 -57 45 -42 48 -12 C 48 -12 39 -21 27 -27 C 9 -33 0 -42 0 -57 Z" transform="rotate(270)"/>
  </g>
</svg>
